arm26_elbow_motion
version=1
nRows=500
nColumns=2
inDegrees=no
endheader
time	r_elbow_flex
0.105396	0.31736850
0.116480	0.31618478
0.150153	0.31484501
0.284386	0.31332670
0.314185	0.31194109
0.330712	0.31055403
0.346052	0.30954093
0.361995	0.30868814
0.374140	0.30793942
0.390281	0.30732623
0.407073	0.30685787
0.423914	0.30625794
0.434014	0.30598227
0.444559	0.30576240
0.457126	0.30560915
0.468772	0.30542099
0.477760	0.30528942
0.489175	0.30510501
0.506457	0.30483239
0.518130	0.30451084
0.537509	0.30417147
0.552421	0.30380547
0.570179	0.30343707
0.579937	0.30290536
0.607639	0.30241483
0.623480	0.30200155
0.640877	0.30144483
0.656845	0.30097145
0.695840	0.30047690
0.723857	0.30005670
0.741401	0.29978030
0.753793	0.29955466
0.769996	0.29929586
0.786224	0.29922121
0.802531	0.29915362
0.813626	0.29914608
0.836571	0.29914099
0.844932	0.29907581
0.861487	0.29896643
0.870491	0.29891130
0.882957	0.29883757
0.893102	0.29872038
0.902544	0.29856884
0.912233	0.29840012
0.937217	0.29824913
0.953268	0.29810741
0.962366	0.29793594
0.970938	0.29782774
1.024874	0.29765206
1.042933	0.29747832
1.054683	0.29726546
1.071027	0.29708292
1.080250	0.29691128
1.103749	0.29673050
1.132356	0.29641970
1.165957	0.29614286
1.190157	0.29579985
1.211585	0.29545511
1.247638	0.29513965
1.252142	0.29541093
1.281599	0.29596579
1.307420	0.29683562
1.321917	0.29805365
1.330910	0.29954985
1.341481	0.30125647
1.351444	0.30299243
1.357570	0.30422831
1.383370	0.30530515
1.406658	0.30625934
1.426089	0.30706485
1.435853	0.30816968
1.456971	0.30965522
1.473409	0.31160283
1.490342	0.31419096
1.497603	0.31750772
1.513325	0.32172913
1.524569	0.32676182
1.540484	0.33224006
1.551208	0.33826798
1.560934	0.34491242
1.573005	0.35206369
1.591138	0.35957434
1.608155	0.36724322
1.616531	0.37544949
1.631066	0.38445211
1.677131	0.39413920
1.692959	0.40431065
1.707643	0.41509989
1.716083	0.42670662
1.726073	0.43921011
1.736689	0.45236235
1.760635	0.46629720
1.773400	0.48130686
1.791384	0.49761244
1.809129	0.51479022
1.831921	0.53249285
1.844233	0.55079627
1.859927	0.56966847
1.893628	0.58866244
1.917619	0.60737972
1.927235	0.62597816
1.941893	0.64473574
1.952344	0.66379465
1.960291	0.68308035
2.009784	0.70257483
2.014103	0.72253415
2.029832	0.74323812
2.040115	0.76461932
2.052639	0.78663679
2.058152	0.80924796
2.071840	0.83236260
2.088065	0.85590755
2.107918	0.87985440
2.141988	0.90407948
2.149504	0.92838351
2.158854	0.95277194
2.174610	0.97720426
2.209293	1.00172031
2.216967	1.02648835
2.257362	1.05145382
2.266021	1.07632250
2.292409	1.10091027
2.300333	1.12490667
2.309459	1.14839660
2.323925	1.17153397
2.339569	1.19414849
2.358577	1.21600638
2.367433	1.23731389
2.455015	1.25840299
2.474532	1.27871250
2.489598	1.29805685
2.504943	1.32085603
2.520404	1.34342947
2.535541	1.36959523
2.557387	1.39561613
2.575935	1.42134803
2.585804	1.44754560
2.593819	1.47469807
2.608963	1.49808996
2.622819	1.52133101
2.631853	1.54064929
2.640512	1.55985852
2.667513	1.57892054
2.683594	1.59779620
2.699969	1.61618392
2.715903	1.63420805
2.732711	1.65191767
2.740645	1.66923895
2.759005	1.68615192
2.762446	1.70286959
2.778450	1.71939339
2.789449	1.73531274
2.807102	1.75022559
2.836699	1.76443084
2.889555	1.77816820
2.906950	1.79122157
2.924825	1.80344151
2.932576	1.81496200
2.947956	1.82610266
2.956947	1.83716375
2.974153	1.84765500
2.976852	1.85754789
2.992409	1.86737682
3.009147	1.87728112
3.020418	1.88705733
3.040843	1.89689300
3.050643	1.90701881
3.061080	1.91780435
3.074739	1.92909657
3.085139	1.94023037
3.092738	1.95098049
3.117092	1.96155944
3.127519	1.97190021
3.150414	1.98215506
3.177586	1.99226866
3.199049	2.00233368
3.208484	2.01272771
3.226447	2.02344962
3.240377	2.03458993
3.248689	2.04606090
3.274573	2.05766591
3.307005	2.06914840
3.314861	2.08029262
3.340634	2.09074971
3.358032	2.10046133
3.364416	2.10916893
3.373022	2.11695546
3.390520	2.12366795
3.406852	2.12954620
3.422731	2.13474167
3.440298	2.13954861
3.456045	2.14400258
3.483119	2.14818664
3.493658	2.15230227
3.534012	2.15628207
3.576780	2.15987944
3.598641	2.16305968
3.623948	2.16571895
3.639241	2.16807362
3.655497	2.16980509
3.675214	2.17035403
3.683147	2.16949629
3.706998	2.16718442
3.718584	2.16345311
3.739354	2.15636601
3.756063	2.14721895
3.772623	2.13615288
3.789354	2.12356202
3.799213	2.10969480
3.809581	2.09457314
3.826470	2.07824488
3.841009	2.06300363
3.849102	2.04751743
3.856749	2.03180761
3.873143	2.01549008
3.885030	1.99914611
3.892931	1.98301232
3.905195	1.96640802
3.962719	1.94915363
3.987554	1.93206113
4.002740	1.91502608
4.009917	1.89749973
4.025900	1.87982610
4.039147	1.86262603
4.056138	1.84648557
4.066773	1.83075078
4.077047	1.81464337
4.092075	1.79836233
4.107742	1.78326263
4.123099	1.76915163
4.133392	1.75543234
4.144115	1.74132741
4.183926	1.72722973
4.209390	1.71354594
4.217347	1.69966106
4.240465	1.68503037
4.249099	1.66891672
4.260885	1.65191165
4.274594	1.63523606
4.292694	1.61901029
4.301150	1.60223683
4.329851	1.58573399
4.342393	1.56966985
4.359966	1.55387848
4.376572	1.53775641
4.390431	1.52155105
4.403235	1.50568433
4.412004	1.49017660
4.436285	1.47404003
4.445312	1.45712086
4.453003	1.43936760
4.472329	1.42094516
4.491160	1.40123910
4.505947	1.37885046
4.540561	1.35417714
4.559233	1.32860296
4.572756	1.30268118
4.582817	1.27635015
4.599015	1.24853959
4.611955	1.21925518
4.658332	1.19056743
4.664790	1.16288610
4.672992	1.13467186
4.733001	1.10442180
4.755466	1.07290973
4.771421	1.04242624
4.787511	1.01381077
4.803573	0.98498416
4.819261	0.95646161
4.835062	0.93066672
4.851033	0.90827733
4.865490	0.88790046
4.876959	0.86849314
4.886752	0.84990571
4.895355	0.83261294
4.919868	0.81492487
4.936157	0.79528004
4.946638	0.77423059
4.954187	0.75368309
4.970880	0.73418070
4.982094	0.71529026
4.990954	0.69784613
4.999860	0.68323513
5.025641	0.67270357
5.040400	0.66662871
5.051287	0.66463164
5.073741	0.66609061
5.089418	0.67069615
5.124501	0.67802472
5.130082	0.68691176
5.142954	0.69638365
5.155988	0.70615098
5.170960	0.71554645
5.179636	0.72451409
5.193420	0.73391137
5.208838	0.74375386
5.225400	0.75412570
5.257638	0.76566301
5.265494	0.77913346
5.294151	0.79482954
5.307347	0.81222913
5.313602	0.83092822
5.357395	0.85171730
5.364358	0.87551030
5.388798	0.90176871
5.405723	0.92973293
5.426877	0.95941331
5.433121	0.99089004
5.458212	1.02342911
5.465374	1.05617822
5.500389	1.08869639
5.510669	1.12088301
5.526480	1.15258726
5.533164	1.18430534
5.542325	1.21656013
5.559539	1.24975930
5.575492	1.28383818
5.583074	1.31847378
5.593558	1.35332284
5.617952	1.38874401
5.632613	1.42384156
5.644139	1.45816669
5.658752	1.49210627
5.700276	1.52559076
5.709786	1.55853856
5.720706	1.59094612
5.736933	1.62243034
5.756559	1.65331979
5.819229	1.68380769
5.852101	1.71828092
5.873474	1.75210451
5.888939	1.78453308
5.905105	1.81552276
5.921713	1.84517788
5.938325	1.87093709
5.953923	1.89888521
5.969023	1.92026593
5.977247	1.93987370
5.993579	1.95827701
6.005033	1.97571498
6.023356	1.99166639
6.041943	2.00871542
6.067546	2.02072958
6.083446	2.03190274
6.099346	2.04261815
6.107928	2.05351965
6.124290	2.06478042
6.133746	2.07647214
6.156637	2.08859567
6.173734	2.10110094
6.201554	2.11383822
6.222173	2.12705295
6.226483	2.14112347
6.243298	2.15607876
6.249230	2.17199280
6.259468	2.18826695
6.275747	2.20456074
6.290338	2.22039110
6.298547	2.23476126
6.343356	2.24667351
6.346067	2.25522505
6.374524	2.25977982
6.381588	2.26048767
6.392900	2.25747455
6.407813	2.25106429
6.422299	2.24168026
6.430747	2.22975342
6.442277	2.21605346
6.457940	2.20142643
6.481359	2.18574746
6.506393	2.16856090
6.538733	2.15051395
6.552199	2.13169891
6.560940	2.11138981
6.569285	2.09040843
6.576862	2.06951216
6.601145	2.04904051
6.631998	2.02912953
6.640241	2.00999954
6.647771	1.99187556
6.663423	1.97567221
6.675022	1.96036874
6.692584	1.94526117
6.709133	1.93048210
6.717015	1.91678594
6.751669	1.90361507
6.761737	1.89119365
6.786449	1.87863477
6.811236	1.86514599
6.825196	1.85136949
6.840200	1.83747956
6.850263	1.82221341
6.857075	1.80560291
6.907010	1.78667434
6.915580	1.76672524
6.924657	1.74699881
6.940962	1.72590232
6.950606	1.70340341
6.960664	1.68178015
6.983074	1.66081765
6.992153	1.64018811
7.006074	1.61819149
7.027363	1.59471674
7.093332	1.57150225
7.123337	1.54817058
7.141719	1.52222726
7.168689	1.48812527
7.186434	1.44849516
7.192412	1.40952585
7.206992	1.36997607
7.221431	1.32950350
7.230767	1.28965262
7.242280	1.25209096
7.252992	1.22153169
7.263473	1.19473807
7.286654	1.16664079
7.304823	1.13936656
7.312284	1.11247732
7.336069	1.08365186
7.352130	1.05189604
7.371972	1.01874680
7.380418	0.98699958
7.392031	0.95721237
7.409874	0.92815825
7.416219	0.89960232
7.457144	0.87233536
7.473794	0.84668243
7.480013	0.82210645
7.504838	0.79698432
7.523706	0.77041002
7.538234	0.74239371
7.546209	0.71371703
7.602084	0.68544772
7.612402	0.65740362
7.634597	0.63091369
7.656087	0.60652614
7.665682	0.58492245
7.677088	0.56710594
7.685793	0.55278588
7.693141	0.54145564
7.724986	0.53392882
7.734768	0.52893579
7.740769	0.52636885
7.750604	0.52616453
7.758387	0.52732032
7.774369	0.52963799
7.791180	0.53324352
7.806013	0.53835544
7.840969	0.54498793
7.847254	0.55327687
7.874922	0.56362273
7.880965	0.57636004
7.905325	0.59234071
7.911025	0.61194075
7.919569	0.63417402
7.935829	0.65753132
7.961714	0.68153782
8.013589	0.70666487
8.025861	0.73396688
8.040683	0.76233473
8.055846	0.79044942
8.072385	0.81905299
8.084415	0.85027468
8.092051	0.88438206
8.100523	0.92058511
8.116781	0.95833105
8.132571	0.99758087
8.142833	1.03868283
8.166014	1.08156924
8.184582	1.12545248
8.207262	1.17013971
8.227280	1.21519268
8.242408	1.25996246
8.266485	1.30471893
8.276582	1.34952930
8.283686	1.39332974
8.293526	1.43564731
8.325593	1.47732326
8.343333	1.51915973
8.369747	1.56073789
8.386383	1.60121079
8.457586	1.64021334
8.479066	1.67786538
8.501867	1.71790066
8.517122	1.76189548
8.532808	1.80293958
8.547333	1.84088842
8.563972	1.87621548
8.573839	1.90942565
8.583671	1.94082011
8.599711	1.96707131
8.607632	1.98592079
8.624149	2.00327004
8.637686	2.01981567
8.656661	2.03603334
8.660372	2.05132708
8.672859	2.06615369
8.692177	2.08041836
8.699283	2.09389383
8.741837	2.10704927
